<svg xmlns="http://www.w3.org/2000/svg" viewBox="0 0 81.66 81.66"><defs><style>.cls-1{fill:#e74799;}</style></defs><title>twitter</title><g id="Layer_2" data-name="Layer 2"><g id="Layer_3" data-name="Layer 3"><path class="cls-1" d="M40.83,0A40.83,40.83,0,1,0,81.66,40.83,40.83,40.83,0,0,0,40.83,0ZM65.4,30.82c0,31.39-30,45-54.6,31.39a31.81,31.81,0,0,0,19.11-5.45C5.34,45.83,16.26,21.26,16.26,21.26A29.08,29.08,0,0,0,40.83,33.63V30.9a12.23,12.23,0,0,1,21.45-8.19,29.81,29.81,0,0,0,8.58-4.17,21.19,21.19,0,0,1-5.68,10A13.11,13.11,0,0,1,65.4,30.82Z"/></g></g></svg>